HIERARCHY
ROOT pelvis
{
  OFFSET 0 100 0
  CHANNELS 6 Xposition Yposition Zposition Zrotation Xrotation Yrotation
  JOINT pelvis_right_femur
  {
    OFFSET -10.78128 -3.44521 -0.5502486
    CHANNELS 3 Zrotation Xrotation Yrotation
    JOINT right_femur_tibia
    {
      OFFSET -0.8047443 -44.0398 -0.1307829
      CHANNELS 3 Zrotation Xrotation Yrotation
      JOINT right_tibia_foot
      {
        OFFSET 3.006224 -47.83518 -5
        CHANNELS 3 Zrotation Xrotation Yrotation
        End Site
        {
          OFFSET 0 -5 15
        }
      }
    }
  }
  JOINT pelvis_left_femur
  {
    OFFSET 10.78128 -3.44521 -0.5502486
    CHANNELS 3 Zrotation Xrotation Yrotation
    JOINT left_femur_tibia
    {
      OFFSET 0.8047443 -44.0398 -0.1307829
      CHANNELS 3 Zrotation Xrotation Yrotation
      JOINT left_tibia_foot
      {
        OFFSET -4.370144 -48.10324 -4.275266
        CHANNELS 3 Zrotation Xrotation Yrotation
        End Site
        {
          OFFSET 0 -5 15
        }
      }
    }
  }
  JOINT pelvis_spine1
  {
    OFFSET 0 6.468898 -3.129235
    CHANNELS 3 Zrotation Xrotation Yrotation
    JOINT spine1
    {
      OFFSET 0 23.15396 4.99043
      CHANNELS 3 Zrotation Xrotation Yrotation
      JOINT spine2
      {
        OFFSET 0 20.79997 -5.064912
        CHANNELS 3 Zrotation Xrotation Yrotation
        JOINT neck
        {
          OFFSET 0 14.38658 9.616178
          CHANNELS 3 Zrotation Xrotation Yrotation
          End Site
          {
            OFFSET 0 20 0
          }
        }
      }
      JOINT right_manubrium
      {
        OFFSET -5.722621 16.35077 3.967754
        CHANNELS 3 Zrotation Xrotation Yrotation
        JOINT right_clavicle
        {
          OFFSET -13.16364 1.694482 -4.693211
          CHANNELS 3 Zrotation Xrotation Yrotation
          JOINT right_humerus
          {
            OFFSET -28.5034 -0.3100689 -2.792744
            CHANNELS 3 Zrotation Xrotation Yrotation
            JOINT right_radius
            {
              OFFSET -25.15693 0.02248979 -1.271978
              CHANNELS 3 Zrotation Xrotation Yrotation
              End Site
              {
                OFFSET -15 0 0
              }
            }
          }
        }
      }
      JOINT left_manubrium
      {
        OFFSET 5.722621 16.35077 3.967754
        CHANNELS 3 Zrotation Xrotation Yrotation
        JOINT left_clavicle
        {
          OFFSET 13.16364 1.694482 -4.693211
          CHANNELS 3 Zrotation Xrotation Yrotation
          JOINT left_humerus
          {
            OFFSET 29.39168 -1.063119 -2.237045
            CHANNELS 3 Zrotation Xrotation Yrotation
            JOINT left_radius
            {
              OFFSET 24.59957 -0.9528479 0.9047498
              CHANNELS 3 Zrotation Xrotation Yrotation
              End Site
              {
                OFFSET 15 -0 -0
              }
            }
          }
        }
      }
    }
  }
}
MOTION
Frames: 13
Frame Time: 0.0416666666667
0 103.5113 0 1.879098 -1.240532 -0.1658879 2.152752 -10.42237 8.929295 -1.649177e-06 35.24548 -4.217689e-08 -6.26162 -19.24885 -3.7994 -7.826306 8.283608 -23.37099 2.484868e-06 5.534816 -9.58397e-08 9.773011 -16.51885 29.04712 -5.036043 -4.94717 5.21932 2.344705 8.994057 -7.87655 1.33308 22.76382 6.49699 3.083798 -23.22305 8.780071 5.993995 -20.0432 11.27176 85.31652 36.60847 -18.59383 -4.004464e-07 -5.194087e-07 16.75601 -7.555551 8.541391 4.194707 5.234456 -19.50383 -1.248253 -94.60819 30.04133 23.06521 4.531045e-07 -1.222617e-07 -15.74595 3.878031 18.41261 8.98866
0.2871077 103.662 1.439781 1.594069 -1.181811 -0.2198205 2.528011 -12.99915 8.957843 -1.587451e-06 37.40198 2.164649e-07 -6.169763 -18.0433 -3.909271 -7.626782 9.651046 -23.35323 2.000576e-06 5.383941 1.621302e-08 9.141407 -17.18258 27.97053 -4.749511 -4.509405 4.889452 2.367309 9.065228 -8.017278 1.271045 22.53019 6.684562 3.120662 -23.4416 8.910568 6.158131 -19.93509 11.35626 85.86026 36.45149 -19.12405 -2.530232e-07 -4.145875e-07 16.71084 -7.349542 8.735024 4.185944 5.176898 -19.51361 -1.48831 -94.56156 30.11366 23.0457 4.231103e-07 -1.522072e-08 -16.07743 3.639428 17.95668 9.381721
0.5916752 103.8112 2.940938 1.220205 -0.9440256 -0.1335294 3.078649 -15.97866 8.835062 -1.520356e-06 38.05249 4.622225e-07 -6.182343 -16.55632 -3.875785 -7.330507 10.88837 -23.13269 1.445733e-06 5.292934 -1.768319e-07 8.25246 -17.96705 26.66264 -4.369062 -3.941438 4.520846 2.4417 9.100979 -8.144902 1.180458 22.24315 6.946631 3.234868 -23.77804 9.034076 6.274899 -19.7799 11.45821 86.35663 36.29969 -19.66035 -8.603774e-08 -3.0777e-07 16.48498 -7.223983 8.902697 4.28718 5.239864 -19.62251 -1.735433 -94.46782 30.10277 22.90252 3.43239e-07 8.248993e-08 -16.67314 3.489121 17.43176 9.677309
0.9000763 103.8767 4.545609 0.8168694 -0.5260381 0.05699092 3.728966 -19.05239 8.58324 -1.459401e-06 36.84935 6.487787e-07 -6.266746 -14.86252 -3.687843 -6.995686 11.89311 -22.72627 9.2437e-07 5.233474 -7.719741e-07 7.249965 -18.81261 25.33843 -3.96423 -3.334248 4.166156 2.572248 9.112619 -8.25759 1.06614 21.91747 7.270621 3.442131 -24.2054 9.128571 6.345452 -19.58227 11.57594 86.72615 36.2069 -20.182 7.843417e-08 -2.109677e-07 16.04832 -7.234501 9.019479 4.504541 5.450369 -19.85772 -1.958679 -94.29388 29.97382 22.59153 2.136472e-07 1.631194e-07 -17.53935 3.46656 16.89643 9.810669
1.194007 103.7998 6.341256 0.4168597 0.02796029 0.3147612 4.408243 -22.07473 8.2407 -1.397249e-06 34.07427 7.434629e-07 -6.349004 -12.94382 -3.42838 -6.650264 12.82925 -22.14222 5.190473e-07 5.339358 -1.705952e-06 6.119324 -19.67614 24.04045 -3.573535 -2.758773 3.833769 2.747129 9.099519 -8.374382 0.9513134 21.58321 7.629148 3.73095 -24.67594 9.193127 6.376923 -19.30588 11.68666 87.11117 36.16 -20.78365 2.159373e-07 -1.244508e-07 15.37382 -7.428939 9.117332 4.822153 5.79514 -20.21571 -2.144918 -94.07103 29.74915 22.05776 5.145264e-08 2.231101e-07 -18.66041 3.519334 16.33981 9.849494
1.460509 103.5355 8.354689 0.04054271 0.6617168 0.5972285 5.070934 -24.7603 7.851346 -1.346795e-06 30.09097 7.679257e-07 -6.461959 -11.03586 -3.089016 -6.322073 13.50098 -21.45446 2.248138e-07 5.570717 -2.87792e-06 4.999688 -20.44654 22.87132 -3.215903 -2.240442 3.555564 2.947066 9.066493 -8.466407 0.8382968 21.24337 7.986339 4.063924 -25.14702 9.218947 6.370714 -19.00021 11.78672 87.31846 36.16895 -21.30703 3.274075e-07 -5.618653e-08 14.57523 -7.722781 9.166205 5.193091 6.217127 -20.62507 -2.279224 -93.76488 29.4462 21.4163 -1.297231e-07 2.64708e-07 -19.85595 3.649485 15.81973 9.769636
1.688757 103.0995 10.68315 -0.3378983 1.362118 0.8873761 5.682886 -27.08774 7.424573 -1.248103e-06 25.67218 7.01585e-07 -6.617852 -9.242319 -2.757881 -5.977369 14.17683 -20.67836 5.359952e-08 6.11755 -3.9075e-06 3.772348 -21.00298 21.6171 -2.866851 -1.836511 3.292645 3.155995 8.975258 -8.570935 0.7449163 20.91861 8.292885 4.380183 -25.59777 9.21631 6.330116 -18.62892 11.82995 87.56644 36.22122 -21.86675 3.81132e-07 -2.154992e-09 13.66683 -8.044501 9.245207 5.55196 6.625739 -21.03674 -2.354851 -93.39946 29.14541 20.6832 -2.86642e-07 2.697732e-07 -21.05948 3.793908 15.31483 9.665317
1.877419 102.537 13.36981 -0.6996148 1.98688 1.182927 6.187106 -28.86932 6.992712 -1.09459e-06 21.73019 5.968861e-07 -6.833735 -7.815638 -2.479918 -5.633599 14.73989 -19.88081 -5.956333e-08 7.080838 -4.519581e-06 2.501181 -21.24194 20.28624 -2.522283 -1.525842 3.051875 3.327262 8.833186 -8.658461 0.6784133 20.65684 8.505876 4.613874 -25.94352 9.188116 6.249125 -18.2269 11.80937 87.81382 36.25258 -22.35893 3.856397e-07 3.342107e-08 12.77893 -8.312987 9.347105 5.831563 6.926845 -21.36735 -2.393896 -92.96708 28.91823 19.94361 -3.935392e-07 2.393618e-07 -22.09913 3.911749 14.85207 9.581425
2.042915 101.9783 16.55477 -1.094039 2.544743 1.509307 6.592462 -29.88842 6.60314 -8.239705e-07 19.1906 4.371547e-07 -7.104231 -6.722633 -2.303948 -5.254242 15.28716 -19.06862 -1.0429e-07 8.774152 -4.428491e-06 1.026172 -20.92908 18.65403 -2.134507 -1.367493 2.815548 3.441633 8.62736 -8.745506 0.654158 20.4385 8.581508 4.719683 -26.20777 9.137491 6.157398 -17.80372 11.69956 88.20922 36.26794 -22.79806 3.100586e-07 6.697269e-08 12.01469 -8.475965 9.577306 6.017485 7.002853 -21.51511 -2.386406 -92.61157 28.81098 19.42952 -4.101848e-07 1.607043e-07 -22.74004 3.891939 14.37208 9.681328
2.211421 101.5839 20.29901 -1.497875 2.947813 1.885911 6.889081 -29.95745 6.268542 -4.298171e-07 18.52003 2.521891e-07 -7.494187 -5.957595 -2.174005 -4.884895 15.56982 -18.28575 -1.570928e-07 11.50276 -3.622908e-06 -0.484217 -19.94536 16.84438 -1.711891 -1.335749 2.613395 3.475165 8.411101 -8.790339 0.6549256 20.26819 8.525989 4.698432 -26.36637 9.050091 6.07601 -17.38257 11.53315 88.54556 36.27937 -23.05344 1.688157e-07 9.423549e-08 11.38374 -8.481703 9.875823 6.076322 6.796369 -21.44436 -2.363015 -92.24593 28.81333 19.22207 -3.313877e-07 4.224162e-08 -22.845 3.777663 13.91633 9.904575
2.405247 101.4855 24.59986 -1.906108 3.113646 2.308219 7.183796 -29.19985 6.050581 4.712915e-08 19.29206 7.371735e-08 -7.996365 -5.53518 -2.101836 -4.506431 15.42826 -17.51236 -3.369396e-07 15.51576 -2.325066e-06 -1.986274 -18.34791 14.99908 -1.227782 -1.338715 2.469011 3.433909 8.240297 -8.769417 0.6832044 20.15427 8.35127 4.567231 -26.40073 8.924829 5.990727 -16.99599 11.35879 88.78753 36.20461 -23.11315 5.610625e-09 1.148177e-07 10.90742 -8.343321 10.21301 6.005292 6.353546 -21.19642 -2.3559 -91.91742 28.8859 19.31998 -1.886377e-07 -8.786978e-08 -22.483 3.579125 13.48891 10.2288
2.632814 101.7633 29.40229 -2.270285 3.011236 2.724741 7.542718 -27.5128 5.974126 5.578713e-07 20.44492 -9.419256e-08 -8.564123 -5.617002 -2.072889 -4.107553 14.45771 -16.65229 -7.364431e-07 21.12934 -7.734626e-07 -3.418194 -16.18712 13.35892 -0.6966919 -1.318727 2.472138 3.332501 8.172688 -8.664708 0.7287699 20.13198 8.082688 4.373743 -26.29235 8.737375 5.90297 -16.68875 11.24448 88.93071 36.06257 -22.99467 -1.549225e-07 1.154672e-07 10.60214 -8.172534 10.56947 5.850722 5.765888 -20.87558 -2.367462 -91.73932 28.96616 19.69007 -1.837148e-08 -2.147188e-07 -21.86692 3.316913 13.08444 10.62114
2.874981 102.4492 34.49544 -2.485412 2.549146 3.047795 7.942085 -25.0458 6.033611 1.028346e-06 21.34704 -1.955387e-07 -9.168196 -6.30773 -2.068194 -3.746108 12.41297 -15.71288 -1.497551e-06 28.45809 8.632947e-07 -4.573577 -13.68985 12.23961 -0.1905099 -1.182887 2.679588 3.172692 8.269814 -8.449641 0.7650259 20.25763 7.77834 4.175689 -25.97185 8.476088 5.832102 -16.44145 11.25511 88.82068 35.88854 -22.71301 -2.705384e-07 7.348728e-08 10.35863 -8.013729 10.82052 5.590746 5.127407 -20.59526 -2.433629 -91.56216 29.03054 20.07718 1.4182e-07 -3.165281e-07 -21.26626 3.086176 12.74807 10.94051
